<mxfile host="Electron" modified="2023-11-12T01:08:24.126Z" agent="Mozilla/5.0 (X11; Linux x86_64) AppleWebKit/537.36 (KHTML, like Gecko) draw.io/22.0.2 Chrome/114.0.5735.289 Electron/25.8.4 Safari/537.36" etag="8UK9HlaTq0mhHIYypPfL" version="22.0.2" type="device">
  <diagram id="C5RBs43oDa-KdzZeNtuy" name="Page-1">
    <mxGraphModel dx="2232" dy="2593" grid="1" gridSize="10" guides="1" tooltips="1" connect="1" arrows="1" fold="1" page="1" pageScale="1" pageWidth="827" pageHeight="1169" math="0" shadow="0">
      <root>
        <mxCell id="WIyWlLk6GJQsqaUBKTNV-0" />
        <mxCell id="WIyWlLk6GJQsqaUBKTNV-1" parent="WIyWlLk6GJQsqaUBKTNV-0" />
        <mxCell id="1C_44WFIdd-TZcVhpwmm-1" value="Lexer" style="swimlane;whiteSpace=wrap;html=1;swimlaneFillColor=default;labelBackgroundColor=none;labelBorderColor=none;fontSize=24;horizontal=1;fontStyle=1;align=center;perimeterSpacing=0;swimlaneLine=0;rounded=0;glass=1;shadow=0;" vertex="1" collapsed="1" parent="WIyWlLk6GJQsqaUBKTNV-1">
          <mxGeometry x="-1560" y="-599" width="140" height="30" as="geometry">
            <mxRectangle x="-1560" y="-599" width="1740" height="1870" as="alternateBounds" />
          </mxGeometry>
        </mxCell>
        <mxCell id="WIyWlLk6GJQsqaUBKTNV-3" value="Input string" style="rounded=1;whiteSpace=wrap;html=1;fontSize=12;glass=0;strokeWidth=1;shadow=0;" parent="1C_44WFIdd-TZcVhpwmm-1" vertex="1">
          <mxGeometry x="540" y="170" width="120" height="40" as="geometry" />
        </mxCell>
        <mxCell id="WIyWlLk6GJQsqaUBKTNV-6" value="is emptly?" style="rhombus;whiteSpace=wrap;html=1;shadow=0;fontFamily=Helvetica;fontSize=12;align=center;strokeWidth=1;spacing=6;spacingTop=-4;" parent="1C_44WFIdd-TZcVhpwmm-1" vertex="1">
          <mxGeometry x="550" y="260" width="100" height="80" as="geometry" />
        </mxCell>
        <mxCell id="WIyWlLk6GJQsqaUBKTNV-2" value="" style="rounded=0;html=1;jettySize=auto;orthogonalLoop=1;fontSize=11;endArrow=classic;endFill=1;endSize=8;strokeWidth=2;shadow=0;labelBackgroundColor=none;edgeStyle=orthogonalEdgeStyle;startArrow=oval;startFill=1;" parent="1C_44WFIdd-TZcVhpwmm-1" source="WIyWlLk6GJQsqaUBKTNV-3" target="WIyWlLk6GJQsqaUBKTNV-6" edge="1">
          <mxGeometry relative="1" as="geometry" />
        </mxCell>
        <mxCell id="WIyWlLk6GJQsqaUBKTNV-10" value="is it a&lt;br&gt;special symbol?" style="rhombus;whiteSpace=wrap;html=1;shadow=0;fontFamily=Helvetica;fontSize=12;align=center;strokeWidth=1;spacing=6;spacingTop=-10;rounded=0;fillColor=default;" parent="1C_44WFIdd-TZcVhpwmm-1" vertex="1">
          <mxGeometry x="700" y="910" width="125" height="100" as="geometry" />
        </mxCell>
        <mxCell id="TVcretjCaAnTR16Wa2_M-7" value="Scan char" style="rounded=1;whiteSpace=wrap;html=1;strokeWidth=1;" parent="1C_44WFIdd-TZcVhpwmm-1" vertex="1">
          <mxGeometry x="550" y="390" width="100" height="40" as="geometry" />
        </mxCell>
        <mxCell id="TVcretjCaAnTR16Wa2_M-4" style="edgeStyle=orthogonalEdgeStyle;rounded=0;orthogonalLoop=1;jettySize=auto;html=1;entryX=0.5;entryY=0;entryDx=0;entryDy=0;startArrow=oval;startFill=1;strokeWidth=2;" parent="1C_44WFIdd-TZcVhpwmm-1" source="WIyWlLk6GJQsqaUBKTNV-6" target="TVcretjCaAnTR16Wa2_M-7" edge="1">
          <mxGeometry relative="1" as="geometry">
            <mxPoint x="600" y="400" as="targetPoint" />
          </mxGeometry>
        </mxCell>
        <mxCell id="TVcretjCaAnTR16Wa2_M-26" style="edgeStyle=orthogonalEdgeStyle;orthogonalLoop=1;jettySize=auto;html=1;entryX=1;entryY=0.5;entryDx=0;entryDy=0;rounded=0;startArrow=oval;startFill=1;exitX=0.5;exitY=0;exitDx=0;exitDy=0;strokeWidth=2;" parent="1C_44WFIdd-TZcVhpwmm-1" source="TVcretjCaAnTR16Wa2_M-10" target="TVcretjCaAnTR16Wa2_M-7" edge="1">
          <mxGeometry relative="1" as="geometry" />
        </mxCell>
        <mxCell id="TVcretjCaAnTR16Wa2_M-10" value="move pointer based on return value" style="rounded=1;whiteSpace=wrap;html=1;strokeWidth=1;" parent="1C_44WFIdd-TZcVhpwmm-1" vertex="1">
          <mxGeometry x="934" y="700" width="120" height="60" as="geometry" />
        </mxCell>
        <mxCell id="TVcretjCaAnTR16Wa2_M-39" style="edgeStyle=orthogonalEdgeStyle;rounded=0;orthogonalLoop=1;jettySize=auto;html=1;entryX=0;entryY=0.5;entryDx=0;entryDy=0;startArrow=oval;startFill=1;strokeWidth=2;" parent="1C_44WFIdd-TZcVhpwmm-1" source="TVcretjCaAnTR16Wa2_M-37" target="WIyWlLk6GJQsqaUBKTNV-10" edge="1">
          <mxGeometry relative="1" as="geometry">
            <mxPoint x="600" y="965" as="targetPoint" />
            <Array as="points">
              <mxPoint x="600" y="960" />
            </Array>
          </mxGeometry>
        </mxCell>
        <mxCell id="TVcretjCaAnTR16Wa2_M-40" value="No" style="edgeLabel;html=1;align=center;verticalAlign=middle;resizable=0;points=[];" parent="TVcretjCaAnTR16Wa2_M-39" vertex="1" connectable="0">
          <mxGeometry x="-0.1055" relative="1" as="geometry">
            <mxPoint x="33" y="-15" as="offset" />
          </mxGeometry>
        </mxCell>
        <mxCell id="TVcretjCaAnTR16Wa2_M-37" value="line end reached?&lt;br&gt;&#39;\0&#39; ?" style="rhombus;whiteSpace=wrap;html=1;strokeWidth=1;" parent="1C_44WFIdd-TZcVhpwmm-1" vertex="1">
          <mxGeometry x="540" y="790" width="120" height="120" as="geometry" />
        </mxCell>
        <mxCell id="TVcretjCaAnTR16Wa2_M-71" style="edgeStyle=orthogonalEdgeStyle;rounded=0;orthogonalLoop=1;jettySize=auto;html=1;entryX=0.5;entryY=1;entryDx=0;entryDy=0;fillColor=#dae8fc;gradientColor=#7ea6e0;strokeColor=#6c8ebf;exitX=0.5;exitY=1;exitDx=0;exitDy=0;startArrow=oval;startFill=1;strokeWidth=2;" parent="1C_44WFIdd-TZcVhpwmm-1" source="TVcretjCaAnTR16Wa2_M-58" target="TVcretjCaAnTR16Wa2_M-10" edge="1">
          <mxGeometry relative="1" as="geometry">
            <Array as="points">
              <mxPoint x="994" y="995" />
              <mxPoint x="1110" y="995" />
              <mxPoint x="1110" y="853" />
              <mxPoint x="994" y="853" />
            </Array>
          </mxGeometry>
        </mxCell>
        <mxCell id="TVcretjCaAnTR16Wa2_M-129" value="Return value" style="edgeLabel;html=1;align=center;verticalAlign=middle;resizable=0;points=[];" parent="TVcretjCaAnTR16Wa2_M-71" vertex="1" connectable="0">
          <mxGeometry x="-0.5107" y="-2" relative="1" as="geometry">
            <mxPoint x="-39" y="13" as="offset" />
          </mxGeometry>
        </mxCell>
        <mxCell id="TVcretjCaAnTR16Wa2_M-115" value="Return value" style="edgeStyle=orthogonalEdgeStyle;rounded=0;orthogonalLoop=1;jettySize=auto;html=1;entryX=1;entryY=0.5;entryDx=0;entryDy=0;fillColor=#dae8fc;strokeColor=#6c8ebf;gradientColor=#7ea6e0;startArrow=oval;startFill=1;strokeWidth=2;" parent="1C_44WFIdd-TZcVhpwmm-1" source="TVcretjCaAnTR16Wa2_M-72" target="TVcretjCaAnTR16Wa2_M-10" edge="1">
          <mxGeometry x="-0.8008" y="-20" relative="1" as="geometry">
            <Array as="points">
              <mxPoint x="763" y="1100" />
              <mxPoint x="1130" y="1100" />
              <mxPoint x="1130" y="730" />
            </Array>
            <mxPoint as="offset" />
          </mxGeometry>
        </mxCell>
        <mxCell id="TVcretjCaAnTR16Wa2_M-128" style="edgeStyle=orthogonalEdgeStyle;rounded=0;orthogonalLoop=1;jettySize=auto;html=1;entryX=0.5;entryY=0;entryDx=0;entryDy=0;startArrow=oval;startFill=1;strokeWidth=2;" parent="1C_44WFIdd-TZcVhpwmm-1" source="TVcretjCaAnTR16Wa2_M-127" target="WIyWlLk6GJQsqaUBKTNV-3" edge="1">
          <mxGeometry relative="1" as="geometry" />
        </mxCell>
        <mxCell id="TVcretjCaAnTR16Wa2_M-127" value="Start" style="triangle;whiteSpace=wrap;html=1;fillColor=#0D4A01;strokeWidth=1;" parent="1C_44WFIdd-TZcVhpwmm-1" vertex="1">
          <mxGeometry x="559.53" y="70" width="80.94" height="70" as="geometry" />
        </mxCell>
        <mxCell id="TVcretjCaAnTR16Wa2_M-131" value="is it a whitspace?" style="rhombus;whiteSpace=wrap;html=1;strokeWidth=1;" parent="1C_44WFIdd-TZcVhpwmm-1" vertex="1">
          <mxGeometry x="540" y="490" width="120" height="120" as="geometry" />
        </mxCell>
        <mxCell id="TVcretjCaAnTR16Wa2_M-38" style="edgeStyle=orthogonalEdgeStyle;rounded=0;orthogonalLoop=1;jettySize=auto;html=1;startArrow=oval;startFill=1;strokeWidth=2;" parent="1C_44WFIdd-TZcVhpwmm-1" source="TVcretjCaAnTR16Wa2_M-7" target="TVcretjCaAnTR16Wa2_M-131" edge="1">
          <mxGeometry relative="1" as="geometry" />
        </mxCell>
        <mxCell id="TVcretjCaAnTR16Wa2_M-137" style="edgeStyle=orthogonalEdgeStyle;rounded=0;orthogonalLoop=1;jettySize=auto;html=1;entryX=0;entryY=0.5;entryDx=0;entryDy=0;startArrow=oval;startFill=1;strokeWidth=2;" parent="1C_44WFIdd-TZcVhpwmm-1" source="TVcretjCaAnTR16Wa2_M-134" target="TVcretjCaAnTR16Wa2_M-7" edge="1">
          <mxGeometry relative="1" as="geometry">
            <Array as="points">
              <mxPoint x="410" y="410" />
            </Array>
          </mxGeometry>
        </mxCell>
        <mxCell id="TVcretjCaAnTR16Wa2_M-134" value="move pointer + 1" style="rounded=1;whiteSpace=wrap;html=1;strokeWidth=1;" parent="1C_44WFIdd-TZcVhpwmm-1" vertex="1">
          <mxGeometry x="340" y="525" width="140" height="50" as="geometry" />
        </mxCell>
        <mxCell id="TVcretjCaAnTR16Wa2_M-136" value="Yes" style="edgeStyle=orthogonalEdgeStyle;rounded=0;orthogonalLoop=1;jettySize=auto;html=1;entryX=1;entryY=0.5;entryDx=0;entryDy=0;startArrow=oval;startFill=1;strokeColor=default;exitX=0;exitY=0.5;exitDx=0;exitDy=0;strokeWidth=2;" parent="1C_44WFIdd-TZcVhpwmm-1" source="TVcretjCaAnTR16Wa2_M-131" target="TVcretjCaAnTR16Wa2_M-134" edge="1">
          <mxGeometry y="-15" relative="1" as="geometry">
            <mxPoint x="560" y="985" as="sourcePoint" />
            <mxPoint x="500" y="985" as="targetPoint" />
            <mxPoint as="offset" />
          </mxGeometry>
        </mxCell>
        <mxCell id="TVcretjCaAnTR16Wa2_M-186" style="edgeStyle=orthogonalEdgeStyle;rounded=0;orthogonalLoop=1;jettySize=auto;html=1;entryX=0.5;entryY=0;entryDx=0;entryDy=0;startArrow=oval;startFill=1;strokeWidth=2;" parent="1C_44WFIdd-TZcVhpwmm-1" source="TVcretjCaAnTR16Wa2_M-185" target="TVcretjCaAnTR16Wa2_M-37" edge="1">
          <mxGeometry relative="1" as="geometry" />
        </mxCell>
        <mxCell id="TVcretjCaAnTR16Wa2_M-185" value="Create new token" style="rounded=1;whiteSpace=wrap;html=1;strokeWidth=1;" parent="1C_44WFIdd-TZcVhpwmm-1" vertex="1">
          <mxGeometry x="540" y="670" width="120" height="60" as="geometry" />
        </mxCell>
        <mxCell id="TVcretjCaAnTR16Wa2_M-138" style="edgeStyle=orthogonalEdgeStyle;rounded=0;orthogonalLoop=1;jettySize=auto;html=1;entryX=0.5;entryY=0;entryDx=0;entryDy=0;startArrow=oval;startFill=1;strokeWidth=2;" parent="1C_44WFIdd-TZcVhpwmm-1" source="TVcretjCaAnTR16Wa2_M-131" target="TVcretjCaAnTR16Wa2_M-185" edge="1">
          <mxGeometry relative="1" as="geometry" />
        </mxCell>
        <mxCell id="TVcretjCaAnTR16Wa2_M-139" value="No" style="edgeLabel;html=1;align=center;verticalAlign=middle;resizable=0;points=[];" parent="TVcretjCaAnTR16Wa2_M-138" vertex="1" connectable="0">
          <mxGeometry x="-0.0333" y="-2" relative="1" as="geometry">
            <mxPoint x="22" as="offset" />
          </mxGeometry>
        </mxCell>
        <mxCell id="TVcretjCaAnTR16Wa2_M-58" value="Set special symbol token" style="swimlane;whiteSpace=wrap;html=1;swimlaneFillColor=#000014;fillColor=#6a00ff;fontColor=#ffffff;strokeColor=#3700CC;strokeWidth=1;gradientColor=none;verticalAlign=middle;" parent="1C_44WFIdd-TZcVhpwmm-1" vertex="1" collapsed="1">
          <mxGeometry x="894" y="945" width="200" height="30" as="geometry">
            <mxRectangle x="894" y="945" width="356" height="435" as="alternateBounds" />
          </mxGeometry>
        </mxCell>
        <mxCell id="TVcretjCaAnTR16Wa2_M-63" style="edgeStyle=orthogonalEdgeStyle;rounded=0;orthogonalLoop=1;jettySize=auto;html=1;entryX=0.5;entryY=0;entryDx=0;entryDy=0;" parent="TVcretjCaAnTR16Wa2_M-58" source="TVcretjCaAnTR16Wa2_M-59" target="TVcretjCaAnTR16Wa2_M-61" edge="1">
          <mxGeometry relative="1" as="geometry" />
        </mxCell>
        <mxCell id="TVcretjCaAnTR16Wa2_M-59" value="Check which symbol" style="rounded=1;whiteSpace=wrap;html=1;" parent="TVcretjCaAnTR16Wa2_M-58" vertex="1">
          <mxGeometry x="77.25" y="105" width="177.5" height="30" as="geometry" />
        </mxCell>
        <mxCell id="TVcretjCaAnTR16Wa2_M-64" style="edgeStyle=orthogonalEdgeStyle;rounded=0;orthogonalLoop=1;jettySize=auto;html=1;entryX=0.5;entryY=0;entryDx=0;entryDy=0;" parent="TVcretjCaAnTR16Wa2_M-58" source="TVcretjCaAnTR16Wa2_M-61" target="TVcretjCaAnTR16Wa2_M-62" edge="1">
          <mxGeometry relative="1" as="geometry" />
        </mxCell>
        <mxCell id="TVcretjCaAnTR16Wa2_M-61" value="set token type and string based on symbol" style="rounded=1;whiteSpace=wrap;html=1;" parent="TVcretjCaAnTR16Wa2_M-58" vertex="1">
          <mxGeometry x="76" y="155" width="181.25" height="35" as="geometry" />
        </mxCell>
        <mxCell id="TVcretjCaAnTR16Wa2_M-67" style="edgeStyle=orthogonalEdgeStyle;rounded=0;orthogonalLoop=1;jettySize=auto;html=1;entryX=0.5;entryY=0;entryDx=0;entryDy=0;" parent="TVcretjCaAnTR16Wa2_M-58" source="TVcretjCaAnTR16Wa2_M-62" target="TVcretjCaAnTR16Wa2_M-197" edge="1">
          <mxGeometry relative="1" as="geometry">
            <mxPoint x="166" y="310" as="targetPoint" />
          </mxGeometry>
        </mxCell>
        <mxCell id="TVcretjCaAnTR16Wa2_M-62" value="Set return value based on string length" style="rounded=1;whiteSpace=wrap;html=1;" parent="TVcretjCaAnTR16Wa2_M-58" vertex="1">
          <mxGeometry x="77.25" y="215" width="177.5" height="40" as="geometry" />
        </mxCell>
        <mxCell id="TVcretjCaAnTR16Wa2_M-196" style="edgeStyle=orthogonalEdgeStyle;rounded=0;orthogonalLoop=1;jettySize=auto;html=1;entryX=0.5;entryY=0;entryDx=0;entryDy=0;" parent="TVcretjCaAnTR16Wa2_M-58" source="TVcretjCaAnTR16Wa2_M-195" target="TVcretjCaAnTR16Wa2_M-59" edge="1">
          <mxGeometry relative="1" as="geometry" />
        </mxCell>
        <mxCell id="TVcretjCaAnTR16Wa2_M-195" value="Start" style="triangle;whiteSpace=wrap;html=1;fillColor=#0D4A01;" parent="TVcretjCaAnTR16Wa2_M-58" vertex="1">
          <mxGeometry x="137.71" y="35" width="57.81" height="50" as="geometry" />
        </mxCell>
        <mxCell id="TVcretjCaAnTR16Wa2_M-197" value="Return string length" style="shape=step;perimeter=stepPerimeter;whiteSpace=wrap;html=1;fixedSize=1;flipV=0;flipH=1;spacingRight=10;fillColor=#0050ef;fontColor=#ffffff;strokeColor=#001DBC;" parent="TVcretjCaAnTR16Wa2_M-58" vertex="1">
          <mxGeometry x="76" y="285" width="180" height="80" as="geometry" />
        </mxCell>
        <mxCell id="TVcretjCaAnTR16Wa2_M-27" style="edgeStyle=orthogonalEdgeStyle;rounded=0;orthogonalLoop=1;jettySize=auto;html=1;entryX=0.5;entryY=0;entryDx=0;entryDy=0;startArrow=oval;startFill=1;strokeWidth=2;" parent="1C_44WFIdd-TZcVhpwmm-1" source="WIyWlLk6GJQsqaUBKTNV-10" target="TVcretjCaAnTR16Wa2_M-58" edge="1">
          <mxGeometry relative="1" as="geometry">
            <mxPoint x="872.5" y="960" as="targetPoint" />
            <Array as="points">
              <mxPoint x="860" y="960" />
              <mxPoint x="860" y="930" />
              <mxPoint x="994" y="930" />
            </Array>
          </mxGeometry>
        </mxCell>
        <mxCell id="TVcretjCaAnTR16Wa2_M-35" value="Yes" style="edgeLabel;html=1;align=center;verticalAlign=middle;resizable=0;points=[];" parent="TVcretjCaAnTR16Wa2_M-27" vertex="1" connectable="0">
          <mxGeometry x="-0.4687" y="2" relative="1" as="geometry">
            <mxPoint x="20" y="-13" as="offset" />
          </mxGeometry>
        </mxCell>
        <mxCell id="TVcretjCaAnTR16Wa2_M-72" value="Set word token" style="swimlane;whiteSpace=wrap;html=1;fillColor=#6a00ff;fontColor=#ffffff;strokeColor=#3700CC;swimlaneFillColor=#000014;strokeWidth=1;" parent="1C_44WFIdd-TZcVhpwmm-1" vertex="1" collapsed="1">
          <mxGeometry x="662.5" y="1055" width="200" height="30" as="geometry">
            <mxRectangle x="662.5" y="1055" width="1020" height="765" as="alternateBounds" />
          </mxGeometry>
        </mxCell>
        <mxCell id="TVcretjCaAnTR16Wa2_M-82" value="Yes" style="edgeStyle=orthogonalEdgeStyle;rounded=0;orthogonalLoop=1;jettySize=auto;html=1;entryX=0.5;entryY=0;entryDx=0;entryDy=0;" parent="TVcretjCaAnTR16Wa2_M-72" source="TVcretjCaAnTR16Wa2_M-80" target="TVcretjCaAnTR16Wa2_M-81" edge="1">
          <mxGeometry x="-0.0128" y="15" relative="1" as="geometry">
            <mxPoint as="offset" />
          </mxGeometry>
        </mxCell>
        <mxCell id="TVcretjCaAnTR16Wa2_M-100" style="edgeStyle=orthogonalEdgeStyle;rounded=0;orthogonalLoop=1;jettySize=auto;html=1;entryX=0.5;entryY=0;entryDx=0;entryDy=0;" parent="TVcretjCaAnTR16Wa2_M-72" source="TVcretjCaAnTR16Wa2_M-80" target="TVcretjCaAnTR16Wa2_M-99" edge="1">
          <mxGeometry relative="1" as="geometry" />
        </mxCell>
        <mxCell id="TVcretjCaAnTR16Wa2_M-101" value="No" style="edgeLabel;html=1;align=center;verticalAlign=middle;resizable=0;points=[];" parent="TVcretjCaAnTR16Wa2_M-100" vertex="1" connectable="0">
          <mxGeometry x="-0.1228" y="-3" relative="1" as="geometry">
            <mxPoint x="23" as="offset" />
          </mxGeometry>
        </mxCell>
        <mxCell id="TVcretjCaAnTR16Wa2_M-80" value="Is single or double quote?" style="rhombus;whiteSpace=wrap;html=1;" parent="TVcretjCaAnTR16Wa2_M-72" vertex="1">
          <mxGeometry x="299.07" y="140" width="120" height="120" as="geometry" />
        </mxCell>
        <mxCell id="TVcretjCaAnTR16Wa2_M-189" style="edgeStyle=orthogonalEdgeStyle;rounded=0;orthogonalLoop=1;jettySize=auto;html=1;entryX=0;entryY=0.5;entryDx=0;entryDy=0;fillColor=#dae8fc;gradientColor=#7ea6e0;strokeColor=#6c8ebf;" parent="TVcretjCaAnTR16Wa2_M-72" source="TVcretjCaAnTR16Wa2_M-81" target="TVcretjCaAnTR16Wa2_M-80" edge="1">
          <mxGeometry relative="1" as="geometry">
            <Array as="points">
              <mxPoint x="648" y="525" />
              <mxPoint x="248" y="525" />
              <mxPoint x="248" y="200" />
            </Array>
          </mxGeometry>
        </mxCell>
        <mxCell id="TVcretjCaAnTR16Wa2_M-190" value="Return value" style="edgeLabel;html=1;align=center;verticalAlign=middle;resizable=0;points=[];" parent="TVcretjCaAnTR16Wa2_M-189" vertex="1" connectable="0">
          <mxGeometry x="0.0521" y="-2" relative="1" as="geometry">
            <mxPoint x="263" y="-368" as="offset" />
          </mxGeometry>
        </mxCell>
        <mxCell id="TVcretjCaAnTR16Wa2_M-81" value="Search matching quote" style="swimlane;whiteSpace=wrap;html=1;labelBackgroundColor=none;labelBorderColor=none;swimlaneFillColor=default;fillColor=#d80073;strokeColor=#A50040;fontColor=#ffffff;" parent="TVcretjCaAnTR16Wa2_M-72" vertex="1">
          <mxGeometry x="538.44" y="105" width="462.5" height="645" as="geometry">
            <mxRectangle x="538.44" y="105" width="170" height="30" as="alternateBounds" />
          </mxGeometry>
        </mxCell>
        <mxCell id="TVcretjCaAnTR16Wa2_M-95" style="edgeStyle=orthogonalEdgeStyle;rounded=0;orthogonalLoop=1;jettySize=auto;html=1;entryX=0.5;entryY=0;entryDx=0;entryDy=0;" parent="TVcretjCaAnTR16Wa2_M-81" source="TVcretjCaAnTR16Wa2_M-83" target="TVcretjCaAnTR16Wa2_M-88" edge="1">
          <mxGeometry relative="1" as="geometry" />
        </mxCell>
        <mxCell id="TVcretjCaAnTR16Wa2_M-83" value="move pointer + 1" style="rounded=1;whiteSpace=wrap;html=1;" parent="TVcretjCaAnTR16Wa2_M-81" vertex="1">
          <mxGeometry x="172.5" y="210" width="130" height="30" as="geometry" />
        </mxCell>
        <mxCell id="TVcretjCaAnTR16Wa2_M-87" value="Yes" style="edgeStyle=orthogonalEdgeStyle;rounded=0;orthogonalLoop=1;jettySize=auto;html=1;entryX=0.5;entryY=0;entryDx=0;entryDy=0;" parent="TVcretjCaAnTR16Wa2_M-81" source="TVcretjCaAnTR16Wa2_M-84" target="TVcretjCaAnTR16Wa2_M-193" edge="1">
          <mxGeometry y="15" relative="1" as="geometry">
            <mxPoint x="237.5" y="550" as="targetPoint" />
            <mxPoint as="offset" />
          </mxGeometry>
        </mxCell>
        <mxCell id="TVcretjCaAnTR16Wa2_M-93" style="edgeStyle=orthogonalEdgeStyle;rounded=0;orthogonalLoop=1;jettySize=auto;html=1;exitX=1;exitY=0.5;exitDx=0;exitDy=0;entryX=1;entryY=0.5;entryDx=0;entryDy=0;" parent="TVcretjCaAnTR16Wa2_M-81" source="TVcretjCaAnTR16Wa2_M-84" target="TVcretjCaAnTR16Wa2_M-83" edge="1">
          <mxGeometry relative="1" as="geometry">
            <Array as="points">
              <mxPoint x="350" y="460" />
              <mxPoint x="350" y="225" />
            </Array>
          </mxGeometry>
        </mxCell>
        <mxCell id="TVcretjCaAnTR16Wa2_M-96" value="No" style="edgeLabel;html=1;align=center;verticalAlign=middle;resizable=0;points=[];" parent="TVcretjCaAnTR16Wa2_M-93" vertex="1" connectable="0">
          <mxGeometry x="-0.1454" relative="1" as="geometry">
            <mxPoint x="17" y="-25" as="offset" />
          </mxGeometry>
        </mxCell>
        <mxCell id="TVcretjCaAnTR16Wa2_M-84" value="found matching quote?" style="rhombus;whiteSpace=wrap;html=1;spacingTop=11;" parent="TVcretjCaAnTR16Wa2_M-81" vertex="1">
          <mxGeometry x="187.5" y="410" width="100" height="100" as="geometry" />
        </mxCell>
        <mxCell id="TVcretjCaAnTR16Wa2_M-94" style="edgeStyle=orthogonalEdgeStyle;rounded=0;orthogonalLoop=1;jettySize=auto;html=1;entryX=0.5;entryY=0;entryDx=0;entryDy=0;" parent="TVcretjCaAnTR16Wa2_M-81" source="TVcretjCaAnTR16Wa2_M-85" target="TVcretjCaAnTR16Wa2_M-83" edge="1">
          <mxGeometry relative="1" as="geometry" />
        </mxCell>
        <mxCell id="TVcretjCaAnTR16Wa2_M-85" value="Save quote in variable" style="rounded=1;whiteSpace=wrap;html=1;" parent="TVcretjCaAnTR16Wa2_M-81" vertex="1">
          <mxGeometry x="170" y="150" width="135" height="30" as="geometry" />
        </mxCell>
        <mxCell id="TVcretjCaAnTR16Wa2_M-89" value="No" style="edgeStyle=orthogonalEdgeStyle;rounded=0;orthogonalLoop=1;jettySize=auto;html=1;entryX=0.5;entryY=0;entryDx=0;entryDy=0;labelPosition=center;verticalLabelPosition=middle;align=center;verticalAlign=middle;" parent="TVcretjCaAnTR16Wa2_M-81" source="TVcretjCaAnTR16Wa2_M-88" target="TVcretjCaAnTR16Wa2_M-84" edge="1">
          <mxGeometry x="0.1837" y="15" relative="1" as="geometry">
            <mxPoint as="offset" />
          </mxGeometry>
        </mxCell>
        <mxCell id="TVcretjCaAnTR16Wa2_M-91" style="edgeStyle=orthogonalEdgeStyle;rounded=0;orthogonalLoop=1;jettySize=auto;html=1;entryX=1;entryY=0.5;entryDx=0;entryDy=0;" parent="TVcretjCaAnTR16Wa2_M-81" source="TVcretjCaAnTR16Wa2_M-88" target="TVcretjCaAnTR16Wa2_M-90" edge="1">
          <mxGeometry relative="1" as="geometry" />
        </mxCell>
        <mxCell id="TVcretjCaAnTR16Wa2_M-92" value="Yes" style="edgeLabel;html=1;align=center;verticalAlign=middle;resizable=0;points=[];" parent="TVcretjCaAnTR16Wa2_M-91" vertex="1" connectable="0">
          <mxGeometry x="-0.1958" y="1" relative="1" as="geometry">
            <mxPoint y="-20" as="offset" />
          </mxGeometry>
        </mxCell>
        <mxCell id="TVcretjCaAnTR16Wa2_M-88" value="reached end of line?" style="rhombus;whiteSpace=wrap;html=1;spacingTop=10;" parent="TVcretjCaAnTR16Wa2_M-81" vertex="1">
          <mxGeometry x="187.5" y="279" width="100" height="100" as="geometry" />
        </mxCell>
        <mxCell id="TVcretjCaAnTR16Wa2_M-90" value="Error and exit&lt;br&gt;(Found no matching quote)" style="shape=document;whiteSpace=wrap;html=1;boundedLbl=1;fillColor=#a20025;fontColor=#ffffff;strokeColor=#6F0000;" parent="TVcretjCaAnTR16Wa2_M-81" vertex="1">
          <mxGeometry x="10" y="289" width="120" height="80" as="geometry" />
        </mxCell>
        <mxCell id="TVcretjCaAnTR16Wa2_M-126" style="edgeStyle=orthogonalEdgeStyle;rounded=0;orthogonalLoop=1;jettySize=auto;html=1;entryX=0.5;entryY=0;entryDx=0;entryDy=0;" parent="TVcretjCaAnTR16Wa2_M-81" source="TVcretjCaAnTR16Wa2_M-124" target="TVcretjCaAnTR16Wa2_M-85" edge="1">
          <mxGeometry relative="1" as="geometry" />
        </mxCell>
        <mxCell id="TVcretjCaAnTR16Wa2_M-124" value="Start" style="triangle;whiteSpace=wrap;html=1;fillColor=#0D4A01;" parent="TVcretjCaAnTR16Wa2_M-81" vertex="1">
          <mxGeometry x="197.03" y="50" width="80.94" height="70" as="geometry" />
        </mxCell>
        <mxCell id="TVcretjCaAnTR16Wa2_M-193" value="Return difference to starting point" style="shape=step;perimeter=stepPerimeter;whiteSpace=wrap;html=1;fixedSize=1;flipV=0;flipH=1;spacingRight=10;fillColor=#0050ef;fontColor=#ffffff;strokeColor=#001DBC;" parent="TVcretjCaAnTR16Wa2_M-81" vertex="1">
          <mxGeometry x="147.50000000000003" y="550" width="180" height="80" as="geometry" />
        </mxCell>
        <mxCell id="TVcretjCaAnTR16Wa2_M-103" value="" style="edgeStyle=orthogonalEdgeStyle;rounded=0;orthogonalLoop=1;jettySize=auto;html=1;entryX=0.5;entryY=0;entryDx=0;entryDy=0;jumpStyle=line;exitX=0.5;exitY=1;exitDx=0;exitDy=0;" parent="TVcretjCaAnTR16Wa2_M-72" source="TVcretjCaAnTR16Wa2_M-99" target="TVcretjCaAnTR16Wa2_M-109" edge="1">
          <mxGeometry relative="1" as="geometry">
            <mxPoint x="417.5" y="435" as="sourcePoint" />
            <mxPoint x="139.07" y="370" as="targetPoint" />
          </mxGeometry>
        </mxCell>
        <mxCell id="TVcretjCaAnTR16Wa2_M-110" value="Yes" style="edgeLabel;html=1;align=center;verticalAlign=middle;resizable=0;points=[];" parent="TVcretjCaAnTR16Wa2_M-103" vertex="1" connectable="0">
          <mxGeometry x="-0.2238" y="-2" relative="1" as="geometry">
            <mxPoint x="20" y="-9" as="offset" />
          </mxGeometry>
        </mxCell>
        <mxCell id="TVcretjCaAnTR16Wa2_M-112" style="edgeStyle=orthogonalEdgeStyle;rounded=0;orthogonalLoop=1;jettySize=auto;html=1;exitX=0;exitY=0.5;exitDx=0;exitDy=0;entryX=0.5;entryY=1;entryDx=0;entryDy=0;jumpStyle=line;" parent="TVcretjCaAnTR16Wa2_M-72" source="TVcretjCaAnTR16Wa2_M-99" target="TVcretjCaAnTR16Wa2_M-111" edge="1">
          <mxGeometry relative="1" as="geometry" />
        </mxCell>
        <mxCell id="TVcretjCaAnTR16Wa2_M-188" value="No" style="edgeLabel;html=1;align=center;verticalAlign=middle;resizable=0;points=[];" parent="TVcretjCaAnTR16Wa2_M-112" vertex="1" connectable="0">
          <mxGeometry x="-0.5623" y="-1" relative="1" as="geometry">
            <mxPoint x="-20" y="-19" as="offset" />
          </mxGeometry>
        </mxCell>
        <mxCell id="TVcretjCaAnTR16Wa2_M-99" value="Is it a whitespace?" style="rhombus;whiteSpace=wrap;html=1;" parent="TVcretjCaAnTR16Wa2_M-72" vertex="1">
          <mxGeometry x="299.07" y="310" width="120" height="120" as="geometry" />
        </mxCell>
        <mxCell id="TVcretjCaAnTR16Wa2_M-109" value="Return length difference between starting pointer" style="shape=step;perimeter=stepPerimeter;whiteSpace=wrap;html=1;fixedSize=1;flipV=0;flipH=1;spacingRight=10;fillColor=#0050ef;fontColor=#ffffff;strokeColor=#001DBC;" parent="TVcretjCaAnTR16Wa2_M-72" vertex="1">
          <mxGeometry x="269.07" y="575" width="180" height="80" as="geometry" />
        </mxCell>
        <mxCell id="TVcretjCaAnTR16Wa2_M-113" style="edgeStyle=orthogonalEdgeStyle;rounded=0;orthogonalLoop=1;jettySize=auto;html=1;entryX=0;entryY=0.5;entryDx=0;entryDy=0;" parent="TVcretjCaAnTR16Wa2_M-72" source="TVcretjCaAnTR16Wa2_M-111" target="TVcretjCaAnTR16Wa2_M-80" edge="1">
          <mxGeometry relative="1" as="geometry" />
        </mxCell>
        <mxCell id="TVcretjCaAnTR16Wa2_M-111" value="Move string pointer + 1" style="rounded=1;whiteSpace=wrap;html=1;" parent="TVcretjCaAnTR16Wa2_M-72" vertex="1">
          <mxGeometry x="77.5" y="160" width="90" height="80" as="geometry" />
        </mxCell>
        <mxCell id="TVcretjCaAnTR16Wa2_M-122" style="edgeStyle=orthogonalEdgeStyle;rounded=0;orthogonalLoop=1;jettySize=auto;html=1;entryX=0.5;entryY=0;entryDx=0;entryDy=0;" parent="TVcretjCaAnTR16Wa2_M-72" source="TVcretjCaAnTR16Wa2_M-120" target="TVcretjCaAnTR16Wa2_M-80" edge="1">
          <mxGeometry relative="1" as="geometry" />
        </mxCell>
        <mxCell id="TVcretjCaAnTR16Wa2_M-120" value="Start" style="triangle;whiteSpace=wrap;html=1;fillColor=#0D4A01;" parent="TVcretjCaAnTR16Wa2_M-72" vertex="1">
          <mxGeometry x="312.82" y="40" width="92.5" height="80" as="geometry" />
        </mxCell>
        <mxCell id="TVcretjCaAnTR16Wa2_M-33" style="edgeStyle=orthogonalEdgeStyle;rounded=0;orthogonalLoop=1;jettySize=auto;html=1;exitX=0.5;exitY=1;exitDx=0;exitDy=0;entryX=0.5;entryY=0;entryDx=0;entryDy=0;startArrow=oval;startFill=1;strokeWidth=2;" parent="1C_44WFIdd-TZcVhpwmm-1" source="WIyWlLk6GJQsqaUBKTNV-10" target="TVcretjCaAnTR16Wa2_M-72" edge="1">
          <mxGeometry relative="1" as="geometry">
            <mxPoint x="762.5" y="1065" as="targetPoint" />
          </mxGeometry>
        </mxCell>
        <mxCell id="TVcretjCaAnTR16Wa2_M-34" value="No" style="edgeLabel;html=1;align=center;verticalAlign=middle;resizable=0;points=[];" parent="TVcretjCaAnTR16Wa2_M-33" vertex="1" connectable="0">
          <mxGeometry x="-0.368" y="-1" relative="1" as="geometry">
            <mxPoint x="19" y="8" as="offset" />
          </mxGeometry>
        </mxCell>
        <mxCell id="TVcretjCaAnTR16Wa2_M-198" value="Return head token" style="shape=step;perimeter=stepPerimeter;whiteSpace=wrap;html=1;fixedSize=1;flipV=0;flipH=1;spacingRight=10;fillColor=#60a917;fontColor=#ffffff;strokeColor=#2D7600;" parent="1C_44WFIdd-TZcVhpwmm-1" vertex="1">
          <mxGeometry x="110" y="810" width="180" height="80" as="geometry" />
        </mxCell>
        <mxCell id="TVcretjCaAnTR16Wa2_M-41" style="edgeStyle=orthogonalEdgeStyle;rounded=0;orthogonalLoop=1;jettySize=auto;html=1;verticalAlign=middle;jumpStyle=line;entryX=1;entryY=0.5;entryDx=0;entryDy=0;startArrow=oval;startFill=1;strokeWidth=2;" parent="1C_44WFIdd-TZcVhpwmm-1" source="TVcretjCaAnTR16Wa2_M-37" target="TVcretjCaAnTR16Wa2_M-198" edge="1">
          <mxGeometry relative="1" as="geometry">
            <mxPoint x="290" y="850" as="targetPoint" />
          </mxGeometry>
        </mxCell>
        <mxCell id="TVcretjCaAnTR16Wa2_M-140" value="Yes" style="edgeLabel;html=1;align=center;verticalAlign=middle;resizable=0;points=[];" parent="TVcretjCaAnTR16Wa2_M-41" vertex="1" connectable="0">
          <mxGeometry x="0.022" y="-2" relative="1" as="geometry">
            <mxPoint x="-2" y="-18" as="offset" />
          </mxGeometry>
        </mxCell>
        <mxCell id="TVcretjCaAnTR16Wa2_M-199" value="Return NULL" style="shape=step;perimeter=stepPerimeter;whiteSpace=wrap;html=1;fixedSize=1;flipV=0;flipH=1;spacingRight=10;fillColor=#a20025;fontColor=#ffffff;strokeColor=#6F0000;" parent="1C_44WFIdd-TZcVhpwmm-1" vertex="1">
          <mxGeometry x="710" y="260" width="180" height="80" as="geometry" />
        </mxCell>
        <mxCell id="WIyWlLk6GJQsqaUBKTNV-5" value="Yes" style="edgeStyle=orthogonalEdgeStyle;rounded=0;html=1;jettySize=auto;orthogonalLoop=1;fontSize=11;endArrow=classic;endFill=1;endSize=8;strokeWidth=2;shadow=0;labelBackgroundColor=none;startArrow=oval;startFill=1;entryX=0;entryY=0.5;entryDx=0;entryDy=0;" parent="1C_44WFIdd-TZcVhpwmm-1" source="WIyWlLk6GJQsqaUBKTNV-6" target="TVcretjCaAnTR16Wa2_M-199" edge="1">
          <mxGeometry y="10" relative="1" as="geometry">
            <mxPoint as="offset" />
            <mxPoint x="700" y="300" as="targetPoint" />
            <Array as="points">
              <mxPoint x="675" y="300" />
              <mxPoint x="770" y="301" />
            </Array>
          </mxGeometry>
        </mxCell>
        <mxCell id="1C_44WFIdd-TZcVhpwmm-2" value="Minishell" style="rounded=1;whiteSpace=wrap;html=1;fontSize=48;" vertex="1" parent="WIyWlLk6GJQsqaUBKTNV-1">
          <mxGeometry x="-990" y="-1110" width="250" height="90" as="geometry" />
        </mxCell>
        <mxCell id="1C_44WFIdd-TZcVhpwmm-3" value="Expander" style="swimlane;whiteSpace=wrap;html=1;swimlaneFillColor=none;labelBackgroundColor=none;labelBorderColor=none;fontSize=24;horizontal=1;fontStyle=1;align=center;perimeterSpacing=0;swimlaneLine=0;rounded=0;glass=1;shadow=0;startSize=23;spacingLeft=0;spacingRight=0;fontColor=default;" vertex="1" parent="WIyWlLk6GJQsqaUBKTNV-1">
          <mxGeometry x="-1090" y="-599" width="1740" height="1870" as="geometry">
            <mxRectangle x="-1090" y="-599" width="140" height="30" as="alternateBounds" />
          </mxGeometry>
        </mxCell>
        <mxCell id="1C_44WFIdd-TZcVhpwmm-126" style="edgeStyle=orthogonalEdgeStyle;rounded=0;orthogonalLoop=1;jettySize=auto;html=1;entryX=0.5;entryY=0;entryDx=0;entryDy=0;" edge="1" parent="1C_44WFIdd-TZcVhpwmm-3" source="1C_44WFIdd-TZcVhpwmm-4" target="1C_44WFIdd-TZcVhpwmm-82">
          <mxGeometry relative="1" as="geometry" />
        </mxCell>
        <mxCell id="1C_44WFIdd-TZcVhpwmm-4" value="Input linked list" style="rounded=1;whiteSpace=wrap;html=1;fontSize=12;glass=0;strokeWidth=1;shadow=0;" vertex="1" parent="1C_44WFIdd-TZcVhpwmm-3">
          <mxGeometry x="770" y="170" width="120" height="40" as="geometry" />
        </mxCell>
        <mxCell id="1C_44WFIdd-TZcVhpwmm-19" value="Start" style="triangle;whiteSpace=wrap;html=1;fillColor=#0D4A01;strokeWidth=1;" vertex="1" parent="1C_44WFIdd-TZcVhpwmm-3">
          <mxGeometry x="789.53" y="70" width="80.94" height="70" as="geometry" />
        </mxCell>
        <mxCell id="1C_44WFIdd-TZcVhpwmm-87" value="Yes" style="edgeStyle=orthogonalEdgeStyle;rounded=0;orthogonalLoop=1;jettySize=auto;html=1;entryX=1;entryY=0.5;entryDx=0;entryDy=0;exitX=0;exitY=0.5;exitDx=0;exitDy=0;" edge="1" parent="1C_44WFIdd-TZcVhpwmm-3" source="1C_44WFIdd-TZcVhpwmm-82" target="1C_44WFIdd-TZcVhpwmm-90">
          <mxGeometry x="-0.0541" y="-10" relative="1" as="geometry">
            <mxPoint x="789.53" y="288.72" as="sourcePoint" />
            <mxPoint x="669.53" y="288.72" as="targetPoint" />
            <mxPoint as="offset" />
          </mxGeometry>
        </mxCell>
        <mxCell id="1C_44WFIdd-TZcVhpwmm-128" value="No" style="edgeStyle=orthogonalEdgeStyle;rounded=0;orthogonalLoop=1;jettySize=auto;html=1;entryX=0.5;entryY=0;entryDx=0;entryDy=0;" edge="1" parent="1C_44WFIdd-TZcVhpwmm-3" source="1C_44WFIdd-TZcVhpwmm-82" target="1C_44WFIdd-TZcVhpwmm-148">
          <mxGeometry x="-0.5063" y="13" relative="1" as="geometry">
            <mxPoint as="offset" />
          </mxGeometry>
        </mxCell>
        <mxCell id="1C_44WFIdd-TZcVhpwmm-82" value="list empty?" style="rhombus;whiteSpace=wrap;html=1;" vertex="1" parent="1C_44WFIdd-TZcVhpwmm-3">
          <mxGeometry x="789.53" y="249" width="80" height="80" as="geometry" />
        </mxCell>
        <mxCell id="1C_44WFIdd-TZcVhpwmm-90" value="Return NULL" style="shape=step;perimeter=stepPerimeter;whiteSpace=wrap;html=1;fixedSize=1;flipV=0;flipH=1;spacingRight=10;fillColor=#a20025;fontColor=#ffffff;strokeColor=#6F0000;" vertex="1" parent="1C_44WFIdd-TZcVhpwmm-3">
          <mxGeometry x="510" y="249" width="180" height="80" as="geometry" />
        </mxCell>
        <mxCell id="1C_44WFIdd-TZcVhpwmm-132" value="" style="edgeStyle=orthogonalEdgeStyle;rounded=0;orthogonalLoop=1;jettySize=auto;html=1;" edge="1" parent="1C_44WFIdd-TZcVhpwmm-3" source="1C_44WFIdd-TZcVhpwmm-127" target="1C_44WFIdd-TZcVhpwmm-131">
          <mxGeometry relative="1" as="geometry" />
        </mxCell>
        <mxCell id="1C_44WFIdd-TZcVhpwmm-127" value="Read token string" style="whiteSpace=wrap;html=1;" vertex="1" parent="1C_44WFIdd-TZcVhpwmm-3">
          <mxGeometry x="769" y="539" width="120" height="60" as="geometry" />
        </mxCell>
        <mxCell id="1C_44WFIdd-TZcVhpwmm-163" style="edgeStyle=orthogonalEdgeStyle;rounded=0;orthogonalLoop=1;jettySize=auto;html=1;entryX=0.5;entryY=0;entryDx=0;entryDy=0;" edge="1" parent="1C_44WFIdd-TZcVhpwmm-3" source="1C_44WFIdd-TZcVhpwmm-131" target="1C_44WFIdd-TZcVhpwmm-137">
          <mxGeometry relative="1" as="geometry" />
        </mxCell>
        <mxCell id="1C_44WFIdd-TZcVhpwmm-131" value="Read char" style="whiteSpace=wrap;html=1;" vertex="1" parent="1C_44WFIdd-TZcVhpwmm-3">
          <mxGeometry x="769" y="649" width="120" height="60" as="geometry" />
        </mxCell>
        <mxCell id="1C_44WFIdd-TZcVhpwmm-166" value="No" style="edgeStyle=orthogonalEdgeStyle;rounded=0;orthogonalLoop=1;jettySize=auto;html=1;" edge="1" parent="1C_44WFIdd-TZcVhpwmm-3" source="1C_44WFIdd-TZcVhpwmm-137" target="1C_44WFIdd-TZcVhpwmm-165">
          <mxGeometry x="-0.75" y="13" relative="1" as="geometry">
            <mxPoint as="offset" />
          </mxGeometry>
        </mxCell>
        <mxCell id="1C_44WFIdd-TZcVhpwmm-168" value="Yes" style="edgeStyle=orthogonalEdgeStyle;rounded=0;orthogonalLoop=1;jettySize=auto;html=1;entryX=0.5;entryY=0;entryDx=0;entryDy=0;" edge="1" parent="1C_44WFIdd-TZcVhpwmm-3" source="1C_44WFIdd-TZcVhpwmm-137" target="1C_44WFIdd-TZcVhpwmm-172">
          <mxGeometry x="-0.915" y="-10" relative="1" as="geometry">
            <mxPoint x="729.5299999999997" y="819" as="targetPoint" />
            <mxPoint as="offset" />
          </mxGeometry>
        </mxCell>
        <mxCell id="1C_44WFIdd-TZcVhpwmm-137" value="Is char &#39;$&#39;?" style="rhombus;whiteSpace=wrap;html=1;" vertex="1" parent="1C_44WFIdd-TZcVhpwmm-3">
          <mxGeometry x="789.53" y="779" width="80" height="80" as="geometry" />
        </mxCell>
        <mxCell id="1C_44WFIdd-TZcVhpwmm-164" style="edgeStyle=orthogonalEdgeStyle;rounded=0;orthogonalLoop=1;jettySize=auto;html=1;entryX=1;entryY=0.5;entryDx=0;entryDy=0;" edge="1" parent="1C_44WFIdd-TZcVhpwmm-3" source="1C_44WFIdd-TZcVhpwmm-146" target="1C_44WFIdd-TZcVhpwmm-131">
          <mxGeometry relative="1" as="geometry">
            <Array as="points">
              <mxPoint x="983" y="679" />
            </Array>
          </mxGeometry>
        </mxCell>
        <mxCell id="1C_44WFIdd-TZcVhpwmm-146" value="Move to next char" style="whiteSpace=wrap;html=1;" vertex="1" parent="1C_44WFIdd-TZcVhpwmm-3">
          <mxGeometry x="929.53" y="789" width="120" height="60" as="geometry" />
        </mxCell>
        <mxCell id="1C_44WFIdd-TZcVhpwmm-149" value="Yes" style="edgeStyle=orthogonalEdgeStyle;rounded=0;orthogonalLoop=1;jettySize=auto;html=1;entryX=0.5;entryY=0;entryDx=0;entryDy=0;" edge="1" parent="1C_44WFIdd-TZcVhpwmm-3" source="1C_44WFIdd-TZcVhpwmm-148" target="1C_44WFIdd-TZcVhpwmm-127">
          <mxGeometry x="-0.1475" y="14" relative="1" as="geometry">
            <mxPoint as="offset" />
          </mxGeometry>
        </mxCell>
        <mxCell id="1C_44WFIdd-TZcVhpwmm-153" value="No" style="edgeStyle=orthogonalEdgeStyle;rounded=0;orthogonalLoop=1;jettySize=auto;html=1;" edge="1" parent="1C_44WFIdd-TZcVhpwmm-3" source="1C_44WFIdd-TZcVhpwmm-148" target="1C_44WFIdd-TZcVhpwmm-152">
          <mxGeometry x="0.1368" y="10" relative="1" as="geometry">
            <mxPoint as="offset" />
          </mxGeometry>
        </mxCell>
        <mxCell id="1C_44WFIdd-TZcVhpwmm-148" value="Is token of type word?" style="rhombus;whiteSpace=wrap;html=1;spacingLeft=8;spacingRight=8;spacingTop=15;" vertex="1" parent="1C_44WFIdd-TZcVhpwmm-3">
          <mxGeometry x="779" y="369" width="100" height="100" as="geometry" />
        </mxCell>
        <mxCell id="1C_44WFIdd-TZcVhpwmm-155" value="" style="edgeStyle=orthogonalEdgeStyle;rounded=0;orthogonalLoop=1;jettySize=auto;html=1;" edge="1" parent="1C_44WFIdd-TZcVhpwmm-3" source="1C_44WFIdd-TZcVhpwmm-152" target="1C_44WFIdd-TZcVhpwmm-154">
          <mxGeometry relative="1" as="geometry" />
        </mxCell>
        <mxCell id="1C_44WFIdd-TZcVhpwmm-162" style="edgeStyle=orthogonalEdgeStyle;rounded=0;orthogonalLoop=1;jettySize=auto;html=1;entryX=0;entryY=0.5;entryDx=0;entryDy=0;" edge="1" parent="1C_44WFIdd-TZcVhpwmm-3" source="1C_44WFIdd-TZcVhpwmm-152" target="1C_44WFIdd-TZcVhpwmm-161">
          <mxGeometry relative="1" as="geometry" />
        </mxCell>
        <mxCell id="1C_44WFIdd-TZcVhpwmm-152" value="is next token &lt;br&gt;== NULL?" style="rhombus;whiteSpace=wrap;html=1;spacingLeft=8;spacingRight=8;spacingTop=15;" vertex="1" parent="1C_44WFIdd-TZcVhpwmm-3">
          <mxGeometry x="974" y="360" width="118" height="118" as="geometry" />
        </mxCell>
        <mxCell id="1C_44WFIdd-TZcVhpwmm-156" style="edgeStyle=orthogonalEdgeStyle;rounded=0;orthogonalLoop=1;jettySize=auto;html=1;entryX=0.5;entryY=0;entryDx=0;entryDy=0;exitX=0;exitY=0.5;exitDx=0;exitDy=0;" edge="1" parent="1C_44WFIdd-TZcVhpwmm-3" source="1C_44WFIdd-TZcVhpwmm-154" target="1C_44WFIdd-TZcVhpwmm-148">
          <mxGeometry relative="1" as="geometry">
            <mxPoint x="963" y="279" as="sourcePoint" />
            <mxPoint x="853" y="369" as="targetPoint" />
            <Array as="points">
              <mxPoint x="913" y="279" />
              <mxPoint x="913" y="369" />
            </Array>
          </mxGeometry>
        </mxCell>
        <mxCell id="1C_44WFIdd-TZcVhpwmm-154" value="Move to next token" style="whiteSpace=wrap;html=1;spacingLeft=8;spacingRight=8;spacingTop=15;" vertex="1" parent="1C_44WFIdd-TZcVhpwmm-3">
          <mxGeometry x="973" y="249" width="120" height="60" as="geometry" />
        </mxCell>
        <mxCell id="1C_44WFIdd-TZcVhpwmm-161" value="Return head token" style="shape=step;perimeter=stepPerimeter;whiteSpace=wrap;html=1;fixedSize=1;flipV=0;flipH=1;spacingRight=10;fillColor=#60a917;fontColor=#ffffff;strokeColor=#2D7600;" vertex="1" parent="1C_44WFIdd-TZcVhpwmm-3">
          <mxGeometry x="1183" y="379" width="180" height="80" as="geometry" />
        </mxCell>
        <mxCell id="1C_44WFIdd-TZcVhpwmm-169" value="No" style="edgeStyle=orthogonalEdgeStyle;rounded=0;orthogonalLoop=1;jettySize=auto;html=1;entryX=0.5;entryY=1;entryDx=0;entryDy=0;" edge="1" parent="1C_44WFIdd-TZcVhpwmm-3" source="1C_44WFIdd-TZcVhpwmm-165" target="1C_44WFIdd-TZcVhpwmm-146">
          <mxGeometry x="-0.892" y="10" relative="1" as="geometry">
            <mxPoint as="offset" />
          </mxGeometry>
        </mxCell>
        <mxCell id="1C_44WFIdd-TZcVhpwmm-171" value="Yes" style="edgeStyle=orthogonalEdgeStyle;rounded=0;orthogonalLoop=1;jettySize=auto;html=1;entryX=0.5;entryY=1;entryDx=0;entryDy=0;" edge="1" parent="1C_44WFIdd-TZcVhpwmm-3" source="1C_44WFIdd-TZcVhpwmm-165" target="1C_44WFIdd-TZcVhpwmm-152">
          <mxGeometry x="-0.8788" y="10" relative="1" as="geometry">
            <mxPoint x="829.53" y="1109" as="targetPoint" />
            <Array as="points">
              <mxPoint x="830" y="1049" />
              <mxPoint x="1073" y="1049" />
              <mxPoint x="1073" y="478" />
            </Array>
            <mxPoint as="offset" />
          </mxGeometry>
        </mxCell>
        <mxCell id="1C_44WFIdd-TZcVhpwmm-165" value="Is char &#39;\0&#39;?" style="rhombus;whiteSpace=wrap;html=1;" vertex="1" parent="1C_44WFIdd-TZcVhpwmm-3">
          <mxGeometry x="789.53" y="939" width="80" height="80" as="geometry" />
        </mxCell>
        <mxCell id="1C_44WFIdd-TZcVhpwmm-172" value="Get enviroment variable" style="swimlane;whiteSpace=wrap;html=1;" vertex="1" parent="1C_44WFIdd-TZcVhpwmm-3">
          <mxGeometry x="40" y="899" width="670" height="831" as="geometry" />
        </mxCell>
        <mxCell id="1C_44WFIdd-TZcVhpwmm-179" style="edgeStyle=orthogonalEdgeStyle;rounded=0;orthogonalLoop=1;jettySize=auto;html=1;entryX=0.5;entryY=0;entryDx=0;entryDy=0;" edge="1" parent="1C_44WFIdd-TZcVhpwmm-172" source="1C_44WFIdd-TZcVhpwmm-175" target="1C_44WFIdd-TZcVhpwmm-178">
          <mxGeometry relative="1" as="geometry" />
        </mxCell>
        <mxCell id="1C_44WFIdd-TZcVhpwmm-175" value="Start" style="triangle;whiteSpace=wrap;html=1;fillColor=#0D4A01;strokeWidth=1;" vertex="1" parent="1C_44WFIdd-TZcVhpwmm-172">
          <mxGeometry x="129.3" y="40" width="80.94" height="70" as="geometry" />
        </mxCell>
        <mxCell id="1C_44WFIdd-TZcVhpwmm-181" value="" style="edgeStyle=orthogonalEdgeStyle;rounded=0;orthogonalLoop=1;jettySize=auto;html=1;" edge="1" parent="1C_44WFIdd-TZcVhpwmm-172" source="1C_44WFIdd-TZcVhpwmm-178" target="1C_44WFIdd-TZcVhpwmm-180">
          <mxGeometry relative="1" as="geometry" />
        </mxCell>
        <mxCell id="1C_44WFIdd-TZcVhpwmm-178" value="Move string pointer + 1" style="rounded=0;whiteSpace=wrap;html=1;" vertex="1" parent="1C_44WFIdd-TZcVhpwmm-172">
          <mxGeometry x="119.99999999999999" y="140" width="99.53" height="60" as="geometry" />
        </mxCell>
        <mxCell id="1C_44WFIdd-TZcVhpwmm-185" style="edgeStyle=orthogonalEdgeStyle;rounded=0;orthogonalLoop=1;jettySize=auto;html=1;entryX=0;entryY=0.5;entryDx=0;entryDy=0;" edge="1" parent="1C_44WFIdd-TZcVhpwmm-172" source="1C_44WFIdd-TZcVhpwmm-180" target="1C_44WFIdd-TZcVhpwmm-190">
          <mxGeometry relative="1" as="geometry">
            <mxPoint x="330" y="310" as="targetPoint" />
          </mxGeometry>
        </mxCell>
        <mxCell id="1C_44WFIdd-TZcVhpwmm-186" value="No" style="edgeLabel;html=1;align=center;verticalAlign=middle;resizable=0;points=[];" vertex="1" connectable="0" parent="1C_44WFIdd-TZcVhpwmm-185">
          <mxGeometry x="-0.0968" y="1" relative="1" as="geometry">
            <mxPoint x="-16" y="-9" as="offset" />
          </mxGeometry>
        </mxCell>
        <mxCell id="1C_44WFIdd-TZcVhpwmm-187" value="Yes" style="edgeStyle=orthogonalEdgeStyle;rounded=0;orthogonalLoop=1;jettySize=auto;html=1;entryX=0;entryY=0.5;entryDx=0;entryDy=0;" edge="1" parent="1C_44WFIdd-TZcVhpwmm-172" source="1C_44WFIdd-TZcVhpwmm-180" target="1C_44WFIdd-TZcVhpwmm-178">
          <mxGeometry x="-0.9111" y="-10" relative="1" as="geometry">
            <Array as="points">
              <mxPoint x="80" y="310" />
              <mxPoint x="80" y="170" />
            </Array>
            <mxPoint as="offset" />
          </mxGeometry>
        </mxCell>
        <mxCell id="1C_44WFIdd-TZcVhpwmm-180" value="is char alpnum?" style="rhombus;whiteSpace=wrap;html=1;rounded=0;" vertex="1" parent="1C_44WFIdd-TZcVhpwmm-172">
          <mxGeometry x="130.23499999999999" y="270" width="80" height="80" as="geometry" />
        </mxCell>
        <mxCell id="1C_44WFIdd-TZcVhpwmm-182" value="Return starting pointer difference" style="shape=step;perimeter=stepPerimeter;whiteSpace=wrap;html=1;fixedSize=1;flipV=0;flipH=1;spacingRight=10;fillColor=#60a917;fontColor=#ffffff;strokeColor=#2D7600;" vertex="1" parent="1C_44WFIdd-TZcVhpwmm-172">
          <mxGeometry x="420" y="640" width="180" height="80" as="geometry" />
        </mxCell>
        <mxCell id="1C_44WFIdd-TZcVhpwmm-192" value="No" style="edgeStyle=orthogonalEdgeStyle;rounded=0;orthogonalLoop=1;jettySize=auto;html=1;entryX=0;entryY=0.5;entryDx=0;entryDy=0;" edge="1" parent="1C_44WFIdd-TZcVhpwmm-172" source="1C_44WFIdd-TZcVhpwmm-190" target="1C_44WFIdd-TZcVhpwmm-194">
          <mxGeometry x="-0.6034" y="-15" relative="1" as="geometry">
            <mxPoint x="335" y="200" as="targetPoint" />
            <mxPoint as="offset" />
          </mxGeometry>
        </mxCell>
        <mxCell id="1C_44WFIdd-TZcVhpwmm-190" value="Is string in env variable?" style="rhombus;whiteSpace=wrap;html=1;" vertex="1" parent="1C_44WFIdd-TZcVhpwmm-172">
          <mxGeometry x="275" y="250" width="120" height="120" as="geometry" />
        </mxCell>
        <mxCell id="1C_44WFIdd-TZcVhpwmm-194" value="Error and exit&lt;br&gt;(Found no matching quote)" style="shape=document;whiteSpace=wrap;html=1;boundedLbl=1;fillColor=#a20025;fontColor=#ffffff;strokeColor=#6F0000;" vertex="1" parent="1C_44WFIdd-TZcVhpwmm-172">
          <mxGeometry x="430" y="270" width="120" height="80" as="geometry" />
        </mxCell>
        <mxCell id="1C_44WFIdd-TZcVhpwmm-91" value="Return head token" style="shape=step;perimeter=stepPerimeter;whiteSpace=wrap;html=1;fixedSize=1;flipV=0;flipH=1;spacingRight=10;fillColor=#60a917;fontColor=#ffffff;strokeColor=#2D7600;" vertex="1" parent="WIyWlLk6GJQsqaUBKTNV-1">
          <mxGeometry x="-1010" y="-910" width="180" height="80" as="geometry" />
        </mxCell>
        <mxCell id="1C_44WFIdd-TZcVhpwmm-92" value="Set word token" style="swimlane;whiteSpace=wrap;html=1;fillColor=#6a00ff;fontColor=#ffffff;strokeColor=#3700CC;swimlaneFillColor=#000014;strokeWidth=1;" vertex="1" collapsed="1" parent="WIyWlLk6GJQsqaUBKTNV-1">
          <mxGeometry x="-570" y="-910" width="200" height="30" as="geometry">
            <mxRectangle x="662.5" y="1055" width="1020" height="765" as="alternateBounds" />
          </mxGeometry>
        </mxCell>
        <mxCell id="1C_44WFIdd-TZcVhpwmm-93" value="Yes" style="edgeStyle=orthogonalEdgeStyle;rounded=0;orthogonalLoop=1;jettySize=auto;html=1;entryX=0.5;entryY=0;entryDx=0;entryDy=0;" edge="1" parent="1C_44WFIdd-TZcVhpwmm-92" source="1C_44WFIdd-TZcVhpwmm-96" target="1C_44WFIdd-TZcVhpwmm-99">
          <mxGeometry x="-0.0128" y="15" relative="1" as="geometry">
            <mxPoint as="offset" />
          </mxGeometry>
        </mxCell>
        <mxCell id="1C_44WFIdd-TZcVhpwmm-94" style="edgeStyle=orthogonalEdgeStyle;rounded=0;orthogonalLoop=1;jettySize=auto;html=1;entryX=0.5;entryY=0;entryDx=0;entryDy=0;" edge="1" parent="1C_44WFIdd-TZcVhpwmm-92" source="1C_44WFIdd-TZcVhpwmm-96" target="1C_44WFIdd-TZcVhpwmm-120">
          <mxGeometry relative="1" as="geometry" />
        </mxCell>
        <mxCell id="1C_44WFIdd-TZcVhpwmm-95" value="No" style="edgeLabel;html=1;align=center;verticalAlign=middle;resizable=0;points=[];" vertex="1" connectable="0" parent="1C_44WFIdd-TZcVhpwmm-94">
          <mxGeometry x="-0.1228" y="-3" relative="1" as="geometry">
            <mxPoint x="23" as="offset" />
          </mxGeometry>
        </mxCell>
        <mxCell id="1C_44WFIdd-TZcVhpwmm-96" value="Is single or double quote?" style="rhombus;whiteSpace=wrap;html=1;" vertex="1" parent="1C_44WFIdd-TZcVhpwmm-92">
          <mxGeometry x="299.07" y="140" width="120" height="120" as="geometry" />
        </mxCell>
        <mxCell id="1C_44WFIdd-TZcVhpwmm-97" style="edgeStyle=orthogonalEdgeStyle;rounded=0;orthogonalLoop=1;jettySize=auto;html=1;entryX=0;entryY=0.5;entryDx=0;entryDy=0;fillColor=#dae8fc;gradientColor=#7ea6e0;strokeColor=#6c8ebf;" edge="1" parent="1C_44WFIdd-TZcVhpwmm-92" source="1C_44WFIdd-TZcVhpwmm-99" target="1C_44WFIdd-TZcVhpwmm-96">
          <mxGeometry relative="1" as="geometry">
            <Array as="points">
              <mxPoint x="648" y="525" />
              <mxPoint x="248" y="525" />
              <mxPoint x="248" y="200" />
            </Array>
          </mxGeometry>
        </mxCell>
        <mxCell id="1C_44WFIdd-TZcVhpwmm-98" value="Return value" style="edgeLabel;html=1;align=center;verticalAlign=middle;resizable=0;points=[];" vertex="1" connectable="0" parent="1C_44WFIdd-TZcVhpwmm-97">
          <mxGeometry x="0.0521" y="-2" relative="1" as="geometry">
            <mxPoint x="263" y="-368" as="offset" />
          </mxGeometry>
        </mxCell>
        <mxCell id="1C_44WFIdd-TZcVhpwmm-99" value="Search matching quote" style="swimlane;whiteSpace=wrap;html=1;labelBackgroundColor=none;labelBorderColor=none;swimlaneFillColor=default;fillColor=#d80073;strokeColor=#A50040;fontColor=#ffffff;" vertex="1" parent="1C_44WFIdd-TZcVhpwmm-92">
          <mxGeometry x="538.44" y="105" width="462.5" height="645" as="geometry">
            <mxRectangle x="538.44" y="105" width="170" height="30" as="alternateBounds" />
          </mxGeometry>
        </mxCell>
        <mxCell id="1C_44WFIdd-TZcVhpwmm-100" style="edgeStyle=orthogonalEdgeStyle;rounded=0;orthogonalLoop=1;jettySize=auto;html=1;entryX=0.5;entryY=0;entryDx=0;entryDy=0;" edge="1" parent="1C_44WFIdd-TZcVhpwmm-99" source="1C_44WFIdd-TZcVhpwmm-101" target="1C_44WFIdd-TZcVhpwmm-111">
          <mxGeometry relative="1" as="geometry" />
        </mxCell>
        <mxCell id="1C_44WFIdd-TZcVhpwmm-101" value="move pointer + 1" style="rounded=1;whiteSpace=wrap;html=1;" vertex="1" parent="1C_44WFIdd-TZcVhpwmm-99">
          <mxGeometry x="172.5" y="210" width="130" height="30" as="geometry" />
        </mxCell>
        <mxCell id="1C_44WFIdd-TZcVhpwmm-102" value="Yes" style="edgeStyle=orthogonalEdgeStyle;rounded=0;orthogonalLoop=1;jettySize=auto;html=1;entryX=0.5;entryY=0;entryDx=0;entryDy=0;" edge="1" parent="1C_44WFIdd-TZcVhpwmm-99" source="1C_44WFIdd-TZcVhpwmm-105" target="1C_44WFIdd-TZcVhpwmm-115">
          <mxGeometry y="15" relative="1" as="geometry">
            <mxPoint x="237.5" y="550" as="targetPoint" />
            <mxPoint as="offset" />
          </mxGeometry>
        </mxCell>
        <mxCell id="1C_44WFIdd-TZcVhpwmm-103" style="edgeStyle=orthogonalEdgeStyle;rounded=0;orthogonalLoop=1;jettySize=auto;html=1;exitX=1;exitY=0.5;exitDx=0;exitDy=0;entryX=1;entryY=0.5;entryDx=0;entryDy=0;" edge="1" parent="1C_44WFIdd-TZcVhpwmm-99" source="1C_44WFIdd-TZcVhpwmm-105" target="1C_44WFIdd-TZcVhpwmm-101">
          <mxGeometry relative="1" as="geometry">
            <Array as="points">
              <mxPoint x="350" y="460" />
              <mxPoint x="350" y="225" />
            </Array>
          </mxGeometry>
        </mxCell>
        <mxCell id="1C_44WFIdd-TZcVhpwmm-104" value="No" style="edgeLabel;html=1;align=center;verticalAlign=middle;resizable=0;points=[];" vertex="1" connectable="0" parent="1C_44WFIdd-TZcVhpwmm-103">
          <mxGeometry x="-0.1454" relative="1" as="geometry">
            <mxPoint x="17" y="-25" as="offset" />
          </mxGeometry>
        </mxCell>
        <mxCell id="1C_44WFIdd-TZcVhpwmm-105" value="found matching quote?" style="rhombus;whiteSpace=wrap;html=1;spacingTop=11;" vertex="1" parent="1C_44WFIdd-TZcVhpwmm-99">
          <mxGeometry x="187.5" y="410" width="100" height="100" as="geometry" />
        </mxCell>
        <mxCell id="1C_44WFIdd-TZcVhpwmm-106" style="edgeStyle=orthogonalEdgeStyle;rounded=0;orthogonalLoop=1;jettySize=auto;html=1;entryX=0.5;entryY=0;entryDx=0;entryDy=0;" edge="1" parent="1C_44WFIdd-TZcVhpwmm-99" source="1C_44WFIdd-TZcVhpwmm-107" target="1C_44WFIdd-TZcVhpwmm-101">
          <mxGeometry relative="1" as="geometry" />
        </mxCell>
        <mxCell id="1C_44WFIdd-TZcVhpwmm-107" value="Save quote in variable" style="rounded=1;whiteSpace=wrap;html=1;" vertex="1" parent="1C_44WFIdd-TZcVhpwmm-99">
          <mxGeometry x="170" y="150" width="135" height="30" as="geometry" />
        </mxCell>
        <mxCell id="1C_44WFIdd-TZcVhpwmm-108" value="No" style="edgeStyle=orthogonalEdgeStyle;rounded=0;orthogonalLoop=1;jettySize=auto;html=1;entryX=0.5;entryY=0;entryDx=0;entryDy=0;labelPosition=center;verticalLabelPosition=middle;align=center;verticalAlign=middle;" edge="1" parent="1C_44WFIdd-TZcVhpwmm-99" source="1C_44WFIdd-TZcVhpwmm-111" target="1C_44WFIdd-TZcVhpwmm-105">
          <mxGeometry x="0.1837" y="15" relative="1" as="geometry">
            <mxPoint as="offset" />
          </mxGeometry>
        </mxCell>
        <mxCell id="1C_44WFIdd-TZcVhpwmm-109" style="edgeStyle=orthogonalEdgeStyle;rounded=0;orthogonalLoop=1;jettySize=auto;html=1;entryX=1;entryY=0.5;entryDx=0;entryDy=0;" edge="1" parent="1C_44WFIdd-TZcVhpwmm-99" source="1C_44WFIdd-TZcVhpwmm-111" target="1C_44WFIdd-TZcVhpwmm-112">
          <mxGeometry relative="1" as="geometry" />
        </mxCell>
        <mxCell id="1C_44WFIdd-TZcVhpwmm-110" value="Yes" style="edgeLabel;html=1;align=center;verticalAlign=middle;resizable=0;points=[];" vertex="1" connectable="0" parent="1C_44WFIdd-TZcVhpwmm-109">
          <mxGeometry x="-0.1958" y="1" relative="1" as="geometry">
            <mxPoint y="-20" as="offset" />
          </mxGeometry>
        </mxCell>
        <mxCell id="1C_44WFIdd-TZcVhpwmm-111" value="reached end of line?" style="rhombus;whiteSpace=wrap;html=1;spacingTop=10;" vertex="1" parent="1C_44WFIdd-TZcVhpwmm-99">
          <mxGeometry x="187.5" y="279" width="100" height="100" as="geometry" />
        </mxCell>
        <mxCell id="1C_44WFIdd-TZcVhpwmm-112" value="Error and exit&lt;br&gt;(Found no matching quote)" style="shape=document;whiteSpace=wrap;html=1;boundedLbl=1;fillColor=#a20025;fontColor=#ffffff;strokeColor=#6F0000;" vertex="1" parent="1C_44WFIdd-TZcVhpwmm-99">
          <mxGeometry x="10" y="289" width="120" height="80" as="geometry" />
        </mxCell>
        <mxCell id="1C_44WFIdd-TZcVhpwmm-113" style="edgeStyle=orthogonalEdgeStyle;rounded=0;orthogonalLoop=1;jettySize=auto;html=1;entryX=0.5;entryY=0;entryDx=0;entryDy=0;" edge="1" parent="1C_44WFIdd-TZcVhpwmm-99" source="1C_44WFIdd-TZcVhpwmm-114" target="1C_44WFIdd-TZcVhpwmm-107">
          <mxGeometry relative="1" as="geometry" />
        </mxCell>
        <mxCell id="1C_44WFIdd-TZcVhpwmm-114" value="Start" style="triangle;whiteSpace=wrap;html=1;fillColor=#0D4A01;" vertex="1" parent="1C_44WFIdd-TZcVhpwmm-99">
          <mxGeometry x="197.03" y="50" width="80.94" height="70" as="geometry" />
        </mxCell>
        <mxCell id="1C_44WFIdd-TZcVhpwmm-115" value="Return difference to starting point" style="shape=step;perimeter=stepPerimeter;whiteSpace=wrap;html=1;fixedSize=1;flipV=0;flipH=1;spacingRight=10;fillColor=#0050ef;fontColor=#ffffff;strokeColor=#001DBC;" vertex="1" parent="1C_44WFIdd-TZcVhpwmm-99">
          <mxGeometry x="147.50000000000003" y="550" width="180" height="80" as="geometry" />
        </mxCell>
        <mxCell id="1C_44WFIdd-TZcVhpwmm-116" value="" style="edgeStyle=orthogonalEdgeStyle;rounded=0;orthogonalLoop=1;jettySize=auto;html=1;entryX=0.5;entryY=0;entryDx=0;entryDy=0;jumpStyle=line;exitX=0.5;exitY=1;exitDx=0;exitDy=0;" edge="1" parent="1C_44WFIdd-TZcVhpwmm-92" source="1C_44WFIdd-TZcVhpwmm-120" target="1C_44WFIdd-TZcVhpwmm-121">
          <mxGeometry relative="1" as="geometry">
            <mxPoint x="417.5" y="435" as="sourcePoint" />
            <mxPoint x="139.07" y="370" as="targetPoint" />
          </mxGeometry>
        </mxCell>
        <mxCell id="1C_44WFIdd-TZcVhpwmm-117" value="Yes" style="edgeLabel;html=1;align=center;verticalAlign=middle;resizable=0;points=[];" vertex="1" connectable="0" parent="1C_44WFIdd-TZcVhpwmm-116">
          <mxGeometry x="-0.2238" y="-2" relative="1" as="geometry">
            <mxPoint x="20" y="-9" as="offset" />
          </mxGeometry>
        </mxCell>
        <mxCell id="1C_44WFIdd-TZcVhpwmm-118" style="edgeStyle=orthogonalEdgeStyle;rounded=0;orthogonalLoop=1;jettySize=auto;html=1;exitX=0;exitY=0.5;exitDx=0;exitDy=0;entryX=0.5;entryY=1;entryDx=0;entryDy=0;jumpStyle=line;" edge="1" parent="1C_44WFIdd-TZcVhpwmm-92" source="1C_44WFIdd-TZcVhpwmm-120" target="1C_44WFIdd-TZcVhpwmm-123">
          <mxGeometry relative="1" as="geometry" />
        </mxCell>
        <mxCell id="1C_44WFIdd-TZcVhpwmm-119" value="No" style="edgeLabel;html=1;align=center;verticalAlign=middle;resizable=0;points=[];" vertex="1" connectable="0" parent="1C_44WFIdd-TZcVhpwmm-118">
          <mxGeometry x="-0.5623" y="-1" relative="1" as="geometry">
            <mxPoint x="-20" y="-19" as="offset" />
          </mxGeometry>
        </mxCell>
        <mxCell id="1C_44WFIdd-TZcVhpwmm-120" value="Is it a whitespace?" style="rhombus;whiteSpace=wrap;html=1;" vertex="1" parent="1C_44WFIdd-TZcVhpwmm-92">
          <mxGeometry x="299.07" y="310" width="120" height="120" as="geometry" />
        </mxCell>
        <mxCell id="1C_44WFIdd-TZcVhpwmm-121" value="Return length difference between starting pointer" style="shape=step;perimeter=stepPerimeter;whiteSpace=wrap;html=1;fixedSize=1;flipV=0;flipH=1;spacingRight=10;fillColor=#0050ef;fontColor=#ffffff;strokeColor=#001DBC;" vertex="1" parent="1C_44WFIdd-TZcVhpwmm-92">
          <mxGeometry x="269.07" y="575" width="180" height="80" as="geometry" />
        </mxCell>
        <mxCell id="1C_44WFIdd-TZcVhpwmm-122" style="edgeStyle=orthogonalEdgeStyle;rounded=0;orthogonalLoop=1;jettySize=auto;html=1;entryX=0;entryY=0.5;entryDx=0;entryDy=0;" edge="1" parent="1C_44WFIdd-TZcVhpwmm-92" source="1C_44WFIdd-TZcVhpwmm-123" target="1C_44WFIdd-TZcVhpwmm-96">
          <mxGeometry relative="1" as="geometry" />
        </mxCell>
        <mxCell id="1C_44WFIdd-TZcVhpwmm-123" value="Move string pointer + 1" style="rounded=1;whiteSpace=wrap;html=1;" vertex="1" parent="1C_44WFIdd-TZcVhpwmm-92">
          <mxGeometry x="77.5" y="160" width="90" height="80" as="geometry" />
        </mxCell>
        <mxCell id="1C_44WFIdd-TZcVhpwmm-124" style="edgeStyle=orthogonalEdgeStyle;rounded=0;orthogonalLoop=1;jettySize=auto;html=1;entryX=0.5;entryY=0;entryDx=0;entryDy=0;" edge="1" parent="1C_44WFIdd-TZcVhpwmm-92" source="1C_44WFIdd-TZcVhpwmm-125" target="1C_44WFIdd-TZcVhpwmm-96">
          <mxGeometry relative="1" as="geometry" />
        </mxCell>
        <mxCell id="1C_44WFIdd-TZcVhpwmm-125" value="Start" style="triangle;whiteSpace=wrap;html=1;fillColor=#0D4A01;" vertex="1" parent="1C_44WFIdd-TZcVhpwmm-92">
          <mxGeometry x="312.82" y="40" width="92.5" height="80" as="geometry" />
        </mxCell>
        <mxCell id="1C_44WFIdd-TZcVhpwmm-160" value="Return NULL" style="shape=step;perimeter=stepPerimeter;whiteSpace=wrap;html=1;fixedSize=1;flipV=0;flipH=1;spacingRight=10;fillColor=#a20025;fontColor=#ffffff;strokeColor=#6F0000;" vertex="1" parent="WIyWlLk6GJQsqaUBKTNV-1">
          <mxGeometry x="-810" y="-910" width="180" height="80" as="geometry" />
        </mxCell>
        <mxCell id="1C_44WFIdd-TZcVhpwmm-191" value="Error and exit&lt;br&gt;(Found no matching quote)" style="shape=document;whiteSpace=wrap;html=1;boundedLbl=1;fillColor=#a20025;fontColor=#ffffff;strokeColor=#6F0000;" vertex="1" parent="WIyWlLk6GJQsqaUBKTNV-1">
          <mxGeometry x="-580" y="-860" width="120" height="80" as="geometry" />
        </mxCell>
      </root>
    </mxGraphModel>
  </diagram>
</mxfile>
